<svg xmlns="http://www.w3.org/2000/svg" viewBox="0 0 1440 320"><path fill="#fbbf24" fill-opacity="1" d="M0,32L7.5,26.7C15,21,30,11,45,26.7C60,43,75,85,90,128C105,171,120,213,135,234.7C150,256,165,256,180,250.7C195,245,210,235,225,224C240,213,255,203,270,181.3C285,160,300,128,315,144C330,160,345,224,360,218.7C375,213,390,139,405,90.7C420,43,435,21,450,26.7C465,32,480,64,495,69.3C510,75,525,53,540,48C555,43,570,53,585,69.3C600,85,615,107,630,117.3C645,128,660,128,675,106.7C690,85,705,43,720,48C735,53,750,107,765,133.3C780,160,795,160,810,186.7C825,213,840,267,855,288C870,309,885,299,900,293.3C915,288,930,288,945,266.7C960,245,975,203,990,160C1005,117,1020,75,1035,101.3C1050,128,1065,224,1080,266.7C1095,309,1110,299,1125,277.3C1140,256,1155,224,1170,208C1185,192,1200,192,1215,176C1230,160,1245,128,1260,128C1275,128,1290,160,1305,181.3C1320,203,1335,213,1350,192C1365,171,1380,117,1395,96C1410,75,1425,85,1433,90.7L1440,96L1440,0L1432.5,0C1425,0,1410,0,1395,0C1380,0,1365,0,1350,0C1335,0,1320,0,1305,0C1290,0,1275,0,1260,0C1245,0,1230,0,1215,0C1200,0,1185,0,1170,0C1155,0,1140,0,1125,0C1110,0,1095,0,1080,0C1065,0,1050,0,1035,0C1020,0,1005,0,990,0C975,0,960,0,945,0C930,0,915,0,900,0C885,0,870,0,855,0C840,0,825,0,810,0C795,0,780,0,765,0C750,0,735,0,720,0C705,0,690,0,675,0C660,0,645,0,630,0C615,0,600,0,585,0C570,0,555,0,540,0C525,0,510,0,495,0C480,0,465,0,450,0C435,0,420,0,405,0C390,0,375,0,360,0C345,0,330,0,315,0C300,0,285,0,270,0C255,0,240,0,225,0C210,0,195,0,180,0C165,0,150,0,135,0C120,0,105,0,90,0C75,0,60,0,45,0C30,0,15,0,8,0L0,0Z"></path></svg>