<svg xmlns="http://www.w3.org/2000/svg" viewBox="0 0 1440 320"><path fill="#fbbf24" fill-opacity="1" d="M0,160L21.8,186.7C43.6,213,87,267,131,266.7C174.5,267,218,213,262,165.3C305.5,117,349,75,393,53.3C436.4,32,480,32,524,48C567.3,64,611,96,655,112C698.2,128,742,128,785,112C829.1,96,873,64,916,74.7C960,85,1004,139,1047,170.7C1090.9,203,1135,213,1178,197.3C1221.8,181,1265,139,1309,144C1352.7,149,1396,203,1418,229.3L1440,256L1440,0L1418.2,0C1396.4,0,1353,0,1309,0C1265.5,0,1222,0,1178,0C1134.5,0,1091,0,1047,0C1003.6,0,960,0,916,0C872.7,0,829,0,785,0C741.8,0,698,0,655,0C610.9,0,567,0,524,0C480,0,436,0,393,0C349.1,0,305,0,262,0C218.2,0,175,0,131,0C87.3,0,44,0,22,0L0,0Z"></path></svg>