<svg width="10317" height="1513" viewBox="0 0 10317 1513" fill="none" xmlns="http://www.w3.org/2000/svg">
<path fill-rule="evenodd" clip-rule="evenodd" d="M1141.85 1091.93C1102.14 1217.4 1015.34 1320.01 897.609 1380.8C779.529 1441.6 644.937 1453.56 517.715 1414.54C390.493 1375.54 286.838 1289.78 224.982 1173.46C162.779 1056.09 151.882 919.379 192.307 794.972C235.879 825.544 306.164 842.055 388.407 846.974C466.426 851.545 555.325 845.914 642.486 831.158C760.566 811.484 869.505 777.037 948.932 734.872C1007.97 703.241 1042.05 672.669 1059.63 644.548C1077.55 667.038 1093.36 691.631 1107.07 716.937C1169.28 833.957 1181.22 966.793 1141.52 1092.26L1141.87 1091.91L1141.85 1091.93Z" fill="white"/>
<path fill-rule="evenodd" clip-rule="evenodd" d="M371.267 227.448L365.636 229.916C317.146 250.303 275.312 288.261 247.208 337.099C246.861 337.447 246.513 337.447 246.148 337.447C218.74 323.039 173.412 303.017 123.862 297.038C123.166 297.038 122.802 295.978 123.514 295.63L316.102 92.8568C316.102 92.8568 316.45 92.509 316.798 92.509L591.96 111.836C591.96 111.836 593.02 112.531 592.655 113.243C561.024 149.446 540.289 191.958 528.001 224.997C528.001 225.345 527.305 225.71 526.941 225.345C478.45 207.426 427.144 207.078 378.637 224.285C376.169 224.981 373.718 226.041 371.615 227.101L371.267 227.448Z" fill="white"/>
<path fill-rule="evenodd" clip-rule="evenodd" d="M224.04 711.005C227.551 672.004 362.143 584.843 594.08 546.19C678.773 532.13 760.303 526.863 830.588 531.086C834.812 531.086 838.67 531.798 842.893 532.146L769.097 722.963C725.873 735.615 679.138 746.512 630.282 754.594C389.568 794.655 230.714 751.779 224.388 715.229V713.125H224.04V711.005Z" fill="white"/>
<path fill-rule="evenodd" clip-rule="evenodd" d="M999.938 585.534C1002.04 598.186 980.611 630.513 912.429 666.716C896.613 675.145 879.39 683.227 861.123 690.613L918.06 543.021C974.285 555.674 997.834 574.653 999.938 585.55V585.534Z" fill="white"/>
<path fill-rule="evenodd" clip-rule="evenodd" d="M999.938 585.534C1002.04 598.186 980.611 630.513 912.429 666.716C896.613 675.145 879.39 683.227 861.123 690.613L918.06 543.021C974.285 555.674 997.834 574.653 999.938 585.55V585.534Z" fill="white"/>
<path fill-rule="evenodd" clip-rule="evenodd" d="M1186.17 680.771C1158.41 628.405 1122.56 581.322 1080.04 540.201C1076.53 536.69 1071.96 533.875 1067.39 532.119C1048.41 507.526 1012.57 483.629 947.208 468.508L1073.02 143.084L1220.61 71.3909C1234.33 66.4723 1243.1 54.1674 1243.82 39.7593C1245.57 12.3508 1217.45 -7.6881 1192.16 2.86129L1029.8 80.8804C1020.66 85.1035 1012.92 92.4731 1009.06 101.963L872.004 456.551C788.371 448.47 687.862 452.693 584.885 469.899C555.721 474.818 526.557 480.797 498.089 487.471L423.581 286.105C423.581 286.105 423.581 285.045 424.276 285.045C460.479 278.371 497.377 285.045 531.112 304.72C539.889 309.986 551.151 310.698 560.64 306.475C570.13 302.616 577.499 293.475 579.967 283.273C580.315 281.865 614.762 151.497 698.743 117.745C710.335 112.827 719.477 102.642 721.233 89.989C724.048 68.559 709.292 50.9877 690.313 49.9278L305.501 22.5689C295.663 21.8734 286.174 25.3843 279.152 32.754L9.6043 316.362C-2.33622 329.362 -3.39613 348.689 7.84883 363.097C16.9905 374.69 33.1541 377.853 46.8501 372.587C131.891 340.607 240.83 414.403 241.89 415.116C249.971 421.094 260.521 422.502 270.01 419.686L272.113 418.991C280.543 416.175 287.582 409.501 291.092 401.072C306.56 363.462 330.094 332.89 359.97 311.808C360.318 311.46 361.03 311.808 361.378 312.155L432.358 504.38C280.543 549.359 158.256 619.645 146.299 700.115C67.9323 861.072 71.0955 1050.48 155.789 1208.27C227.829 1342.87 349.073 1441.62 497.377 1486.95C543.069 1501.01 589.456 1509.09 636.192 1511.9C740.907 1518.23 845.639 1496.44 940.882 1447.95C1078.64 1377.31 1179.49 1259.23 1225.88 1114.09C1271.92 969.314 1258.21 815.38 1185.82 680.788H1186.17V680.771ZM371.215 227.446L365.584 229.913C317.093 250.3 275.277 288.241 247.156 337.096C246.808 337.444 246.444 337.444 246.096 337.444C218.688 323.036 173.36 303.014 123.809 297.035C123.114 297.035 122.749 295.975 123.462 295.628L316.05 92.854C316.05 92.854 316.398 92.5063 316.762 92.5063L591.924 111.833C591.924 111.833 592.984 112.529 592.619 113.241C560.988 149.443 540.253 191.955 527.949 224.995C527.949 225.342 527.253 225.69 526.889 225.342C478.398 207.423 427.092 207.076 378.584 224.283C376.117 224.978 373.666 226.038 371.563 227.098L371.215 227.446ZM999.905 585.545C1002.01 598.198 980.579 630.525 912.397 666.728C896.581 675.157 879.357 683.239 861.091 690.625L918.028 543.033C974.252 555.686 997.802 574.665 999.905 585.562V585.545ZM223.971 711.012C227.481 672.011 362.073 584.85 594.011 546.196C678.704 532.136 760.234 526.87 830.519 531.093C834.742 531.093 838.601 531.788 842.824 532.152L769.028 722.969C725.803 735.622 679.068 746.519 630.213 754.601C389.498 794.662 230.645 751.785 224.318 715.235V713.132H223.971V711.012ZM1141.88 1091.95C1102.17 1217.42 1015.37 1320.03 897.641 1380.82C779.561 1441.62 644.969 1453.56 517.764 1414.56C390.542 1375.56 286.886 1289.8 225.03 1173.48C162.827 1056.11 151.93 919.399 192.355 794.993C235.928 825.565 306.213 842.076 388.455 846.995C466.474 851.565 555.374 845.935 642.534 831.179C760.615 811.504 869.553 777.057 948.98 734.893C1008.02 703.261 1042.1 672.69 1059.67 644.569C1077.59 667.059 1093.41 691.652 1107.12 716.957C1169.32 833.978 1181.27 966.814 1141.57 1092.28L1141.92 1091.93L1141.88 1091.95Z" fill="black"/>
<path fill-rule="evenodd" clip-rule="evenodd" d="M224.041 711.003C227.552 672.001 362.143 584.84 594.081 546.187C678.774 532.127 760.304 526.86 830.589 531.083C834.812 531.083 838.671 531.795 842.894 532.143L769.098 722.96C725.874 735.612 679.138 746.509 630.283 754.591C389.569 794.652 230.715 751.776 224.389 715.226V713.122H224.041V711.003Z" fill="white"/>
<path fill-rule="evenodd" clip-rule="evenodd" d="M999.945 585.518C1002.05 598.17 980.618 630.497 912.436 666.7C896.621 675.129 879.397 683.211 861.13 690.597L918.067 543.005C974.292 555.658 997.842 574.637 999.945 585.534V585.518Z" fill="white"/>
<path d="M3586.54 575.361C3477.6 468.873 3346.17 415.116 3197.52 415.116C3048.87 415.116 2918.85 468.89 2809.55 575.708C2703.08 684.299 2649.3 816.075 2649.3 964.727C2649.3 1113.38 2703.08 1243.4 2809.91 1352.7C2918.49 1459.19 3048.87 1512.95 3197.18 1512.95C3345.48 1512.95 3477.6 1458.83 3586.19 1352.7L3586.89 1352.01C3693.38 1243.42 3747.15 1114.09 3747.15 964.744C3747.15 815.396 3693.38 684.664 3586.54 575.377V575.361ZM3197.52 1213.19C3128.65 1213.19 3071.01 1189.64 3021.81 1141.15C2972.96 1091.25 2949.07 1033.97 2949.07 965.092C2949.07 896.214 2972.61 838.582 3021.11 789.379C3071.01 740.54 3128.65 716.643 3197.18 716.643L3197.52 716.991C3266.05 716.991 3322.97 740.54 3371.83 789.379C3421.73 838.93 3445.97 896.562 3445.97 965.092C3445.97 1033.62 3421.73 1090.91 3371.83 1140.8C3322.97 1189.64 3266.4 1213.19 3197.52 1213.19Z" fill="black"/>
<path d="M4726.24 1093.71C4657.37 1174.18 4586.02 1213.2 4508.37 1213.2C4439.49 1213.2 4381.86 1189.65 4332.65 1141.16C4283.8 1091.26 4259.9 1033.98 4259.9 965.101C4259.9 896.224 4283.45 838.591 4331.94 789.388C4381.86 740.533 4439.49 716.636 4508 716.636C4586.73 716.636 4658.06 755.289 4725.9 834.368L4745.57 857.57L4994.02 699.081L4970.83 668.509C4910.73 589.795 4839.75 527.243 4759.98 482.959C4679.14 437.979 4594.47 415.142 4507.65 415.142C4359 415.142 4228.98 468.915 4119.69 575.734C4013.21 684.325 3959.45 816.101 3959.45 964.753C3959.45 1113.41 4013.21 1243.43 4120.04 1352.73C4228.63 1459.2 4359 1512.97 4507.31 1512.97H4508C4594.1 1512.97 4676.34 1493.65 4752.24 1456.04C4828.51 1418.44 4893.16 1364.67 4944.47 1296.49L4963.1 1271.53L4750.49 1065.25L4726.24 1093.71Z" fill="black"/>
<path d="M7244.05 1093.71C7175.18 1174.18 7103.83 1213.2 7026.18 1213.2C6957.3 1213.2 6899.67 1189.65 6850.46 1141.16C6801.61 1091.26 6777.71 1033.98 6777.71 965.101C6777.71 896.224 6801.26 838.591 6849.75 789.388C6899.67 740.533 6957.3 716.636 7025.81 716.636C7104.54 716.636 7175.87 755.289 7243.71 834.368L7263.38 857.57L7511.83 699.081L7488.64 668.509C7428.54 589.795 7357.56 527.243 7277.79 482.959C7196.95 437.979 7112.28 415.142 7025.46 415.142C6876.81 415.142 6746.79 468.915 6637.5 575.734C6531.02 684.325 6477.26 816.101 6477.26 964.753C6477.26 1113.41 6531.02 1243.43 6637.85 1352.73C6746.44 1459.2 6876.81 1512.97 7025.12 1512.97H7025.81C7111.91 1512.97 7194.15 1493.65 7270.05 1456.04C7346.32 1418.44 7410.97 1364.67 7462.28 1296.49L7480.91 1271.53L7268.3 1065.25L7244.05 1093.71Z" fill="white"/>
<path d="M6108.4 575.361C5999.46 468.873 5868.03 415.116 5719.38 415.116C5570.72 415.116 5440.69 468.89 5331.4 575.708C5224.93 684.299 5171.16 816.075 5171.16 964.727C5171.16 1113.38 5224.93 1243.4 5331.75 1352.7C5440.34 1459.17 5570.72 1512.95 5719.01 1512.95C5867.3 1512.95 5999.46 1458.83 6108.05 1352.7L6108.74 1352.01C6215.23 1243.42 6268.99 1114.09 6268.99 964.744C6268.99 815.396 6215.23 684.664 6108.4 575.377V575.361ZM5967.82 965.092C5967.82 1033.62 5943.58 1090.91 5893.68 1140.8C5844.83 1189.66 5788.25 1213.19 5719.38 1213.19C5650.5 1213.19 5592.87 1189.64 5543.66 1141.15C5494.81 1091.25 5470.91 1033.97 5470.91 965.092C5470.91 896.214 5494.46 838.582 5542.95 789.379C5592.87 740.524 5650.5 716.626 5719.01 716.626L5719.38 716.974C5787.89 716.974 5844.83 740.524 5893.68 789.362C5943.58 838.913 5967.82 896.545 5967.82 965.075V965.092Z" fill="black"/>
<path d="M8437.69 472.549V538.462C8354.82 474.652 8257.17 442.325 8147.32 442.325C8003.11 442.325 7880.77 496.943 7783.71 604.623C7689.26 708.262 7641.37 834.06 7641.37 978.506C7641.37 1122.95 7688.66 1247.44 7781.95 1348.88C7880.54 1457.75 8003.47 1512.95 8147.32 1512.95C8258.02 1512.95 8355.66 1481.07 8437.69 1418.2V1484.15H8712.34V472.549H8437.69ZM8359.82 1163.26C8308.74 1214.7 8248.66 1239.71 8176.14 1239.71C8103.62 1239.71 8043.3 1214.8 7991.09 1163.63C7939.63 1111.47 7914.61 1050.81 7914.61 978.174C7914.61 905.538 7939.51 845.338 7990.69 793.121C8043.19 741.65 8103.85 716.642 8176.14 716.642H8180.28V715.963C8250.25 716.907 8309.02 741.931 8359.82 792.376C8412.22 845.123 8437.69 905.786 8437.69 977.827C8437.69 1049.87 8412.22 1110.88 8359.82 1163.26Z" fill="white"/>
<path d="M10139.8 460.068V252.74H9868.5V460.068H9691.38V729.665H9868.5V1485.43H10139.8V729.665H10317V460.068H10139.8Z" fill="white"/>
<path d="M2228.27 1093.72C2159.38 1174.19 2088.05 1213.21 2010.38 1213.21C1941.5 1213.21 1883.87 1189.66 1834.66 1141.17C1785.83 1091.27 1761.93 1033.99 1761.93 965.11C1761.93 896.233 1785.48 838.601 1833.97 789.398C1883.87 740.559 1941.5 716.661 2010.03 716.661C2088.74 716.661 2160.09 755.315 2227.91 834.394L2247.6 857.596L2496.05 699.107L2472.84 668.535C2412.76 589.82 2341.78 527.269 2262.01 482.985C2181.17 438.005 2096.48 415.168 2009.68 415.168C1861.03 415.168 1731.01 468.941 1621.71 575.76C1515.23 684.351 1461.46 816.127 1461.46 964.779C1461.46 1113.43 1515.23 1243.45 1622.07 1352.75C1730.64 1459.24 1861.03 1513 2009.33 1513H2010.03C2096.13 1513 2178.36 1493.67 2254.27 1456.06C2330.52 1418.45 2395.19 1364.7 2446.5 1296.51L2465.13 1271.56L2252.52 1065.27L2228.27 1093.74V1093.72Z" fill="black"/>
<path d="M9498.06 452.382C9450.98 445.394 9418.82 442.131 9396.82 442.131C9323.61 442.131 9255.97 460.348 9195.61 496.302V472.703H8920.61V1485.96H9195.61V876.428C9198.47 835.274 9215.05 800.032 9246.07 769.013C9280.33 734.765 9320.33 718.104 9368.35 718.104C9392.45 718.104 9413.62 721.532 9431.19 728.306L9455.13 737.795L9522.39 455.993L9498.04 452.382H9498.06Z" fill="white"/>
</svg>
